<mxfile host="app.diagrams.net" modified="2023-05-11T21:25:57.988Z" agent="Mozilla/5.0 (Windows NT 10.0; Win64; x64; rv:109.0) Gecko/20100101 Firefox/113.0" etag="DOPXt8SMnXrE9ncdzEjQ" version="21.2.9" type="device">
  <diagram name="Page-1" id="RIBbG5qZGmllURkXTkt4">
    <mxGraphModel dx="1434" dy="782" grid="1" gridSize="10" guides="1" tooltips="1" connect="1" arrows="1" fold="1" page="1" pageScale="1" pageWidth="850" pageHeight="1100" math="0" shadow="0">
      <root>
        <mxCell id="0" />
        <mxCell id="1" parent="0" />
        <mxCell id="rxWOuthaQ6ftUKYUlC2r-3" value="Prometeus" style="rounded=0;whiteSpace=wrap;html=1;fillColor=none;" vertex="1" parent="1">
          <mxGeometry x="240" y="99" width="80" height="70" as="geometry" />
        </mxCell>
        <mxCell id="rxWOuthaQ6ftUKYUlC2r-54" value="" style="group" vertex="1" connectable="0" parent="1">
          <mxGeometry x="29" y="190" width="130" height="197.5" as="geometry" />
        </mxCell>
        <mxCell id="rxWOuthaQ6ftUKYUlC2r-17" value="" style="points=[[0.13,0.02,0],[0.5,0,0],[0.87,0.02,0],[0.885,0.4,0],[0.985,0.985,0],[0.5,1,0],[0.015,0.985,0],[0.115,0.4,0]];verticalLabelPosition=bottom;sketch=0;html=1;verticalAlign=top;aspect=fixed;align=center;pointerEvents=1;shape=mxgraph.cisco19.laptop;fillColor=#005073;strokeColor=none;" vertex="1" parent="rxWOuthaQ6ftUKYUlC2r-54">
          <mxGeometry x="8.75" y="70" width="50" height="35" as="geometry" />
        </mxCell>
        <mxCell id="rxWOuthaQ6ftUKYUlC2r-23" value="Workstation" style="text;html=1;strokeColor=none;fillColor=none;align=center;verticalAlign=middle;whiteSpace=wrap;rounded=0;" vertex="1" parent="rxWOuthaQ6ftUKYUlC2r-54">
          <mxGeometry x="3.75" y="100" width="60" height="30" as="geometry" />
        </mxCell>
        <mxCell id="rxWOuthaQ6ftUKYUlC2r-29" value="" style="rounded=0;whiteSpace=wrap;html=1;fillColor=none;" vertex="1" parent="rxWOuthaQ6ftUKYUlC2r-54">
          <mxGeometry y="50" width="70" height="80" as="geometry" />
        </mxCell>
        <mxCell id="rxWOuthaQ6ftUKYUlC2r-69" value="&lt;div&gt;Grafana&lt;/div&gt;&lt;div&gt;Agent&lt;br&gt;&lt;/div&gt;" style="rounded=0;whiteSpace=wrap;html=1;fillColor=#ffe6cc;strokeColor=#d79b00;" vertex="1" parent="rxWOuthaQ6ftUKYUlC2r-54">
          <mxGeometry x="70" y="80" width="60" height="30" as="geometry" />
        </mxCell>
        <mxCell id="rxWOuthaQ6ftUKYUlC2r-58" value="Endpoints" style="text;html=1;strokeColor=none;fillColor=none;align=center;verticalAlign=middle;whiteSpace=wrap;rounded=0;" vertex="1" parent="rxWOuthaQ6ftUKYUlC2r-54">
          <mxGeometry x="21" y="140" width="90" height="30" as="geometry" />
        </mxCell>
        <mxCell id="rxWOuthaQ6ftUKYUlC2r-55" value="" style="group" vertex="1" connectable="0" parent="1">
          <mxGeometry x="30" y="140" width="70" height="80" as="geometry" />
        </mxCell>
        <mxCell id="rxWOuthaQ6ftUKYUlC2r-16" value="" style="rounded=0;whiteSpace=wrap;html=1;fillColor=none;movable=1;resizable=1;rotatable=1;deletable=1;editable=1;locked=0;connectable=1;" vertex="1" parent="rxWOuthaQ6ftUKYUlC2r-55">
          <mxGeometry width="70" height="80" as="geometry" />
        </mxCell>
        <mxCell id="rxWOuthaQ6ftUKYUlC2r-20" value="" style="image;aspect=fixed;perimeter=ellipsePerimeter;html=1;align=center;shadow=0;dashed=0;spacingTop=3;image=img/lib/active_directory/generic_server.svg;movable=1;resizable=1;rotatable=1;deletable=1;editable=1;locked=0;connectable=1;" vertex="1" parent="rxWOuthaQ6ftUKYUlC2r-55">
          <mxGeometry x="20" y="10" width="28.000000000000004" height="50" as="geometry" />
        </mxCell>
        <mxCell id="rxWOuthaQ6ftUKYUlC2r-22" value="Server" style="text;html=1;strokeColor=none;fillColor=none;align=center;verticalAlign=middle;whiteSpace=wrap;rounded=0;movable=1;resizable=1;rotatable=1;deletable=1;editable=1;locked=0;connectable=1;" vertex="1" parent="rxWOuthaQ6ftUKYUlC2r-55">
          <mxGeometry x="11.630000000000003" y="50" width="46.75" height="30" as="geometry" />
        </mxCell>
        <mxCell id="rxWOuthaQ6ftUKYUlC2r-73" style="rounded=0;orthogonalLoop=1;jettySize=auto;html=1;" edge="1" parent="1" source="rxWOuthaQ6ftUKYUlC2r-57">
          <mxGeometry relative="1" as="geometry">
            <mxPoint x="240" y="130" as="targetPoint" />
          </mxGeometry>
        </mxCell>
        <mxCell id="rxWOuthaQ6ftUKYUlC2r-74" style="rounded=0;orthogonalLoop=1;jettySize=auto;html=1;entryX=0;entryY=0.5;entryDx=0;entryDy=0;exitX=1;exitY=0.5;exitDx=0;exitDy=0;" edge="1" parent="1" source="rxWOuthaQ6ftUKYUlC2r-57" target="rxWOuthaQ6ftUKYUlC2r-71">
          <mxGeometry relative="1" as="geometry" />
        </mxCell>
        <mxCell id="rxWOuthaQ6ftUKYUlC2r-75" style="rounded=0;orthogonalLoop=1;jettySize=auto;html=1;entryX=0;entryY=0.5;entryDx=0;entryDy=0;exitX=1;exitY=0.5;exitDx=0;exitDy=0;" edge="1" parent="1" source="rxWOuthaQ6ftUKYUlC2r-57" target="rxWOuthaQ6ftUKYUlC2r-72">
          <mxGeometry relative="1" as="geometry" />
        </mxCell>
        <mxCell id="rxWOuthaQ6ftUKYUlC2r-57" value="&lt;div&gt;Grafana&lt;/div&gt;&lt;div&gt;Agent&lt;br&gt;&lt;/div&gt;" style="rounded=0;whiteSpace=wrap;html=1;fillColor=#ffe6cc;strokeColor=#d79b00;" vertex="1" parent="1">
          <mxGeometry x="100" y="170" width="60" height="30" as="geometry" />
        </mxCell>
        <mxCell id="rxWOuthaQ6ftUKYUlC2r-81" style="edgeStyle=orthogonalEdgeStyle;rounded=0;orthogonalLoop=1;jettySize=auto;html=1;startArrow=classic;startFill=1;" edge="1" parent="1" source="rxWOuthaQ6ftUKYUlC2r-71" target="rxWOuthaQ6ftUKYUlC2r-79">
          <mxGeometry relative="1" as="geometry" />
        </mxCell>
        <mxCell id="rxWOuthaQ6ftUKYUlC2r-71" value="OpenTelemtry" style="rounded=0;whiteSpace=wrap;html=1;fillColor=none;" vertex="1" parent="1">
          <mxGeometry x="240" y="200" width="80" height="70" as="geometry" />
        </mxCell>
        <mxCell id="rxWOuthaQ6ftUKYUlC2r-72" value="&lt;div&gt;Loki&lt;/div&gt;&lt;div&gt;Mimir&lt;/div&gt;&lt;div&gt;Tempo&lt;/div&gt;&lt;div&gt;Phlare&lt;br&gt;&lt;/div&gt;" style="rounded=0;whiteSpace=wrap;html=1;fillColor=none;" vertex="1" parent="1">
          <mxGeometry x="240" y="300" width="80" height="70" as="geometry" />
        </mxCell>
        <mxCell id="rxWOuthaQ6ftUKYUlC2r-76" style="rounded=0;orthogonalLoop=1;jettySize=auto;html=1;entryX=0;entryY=0.5;entryDx=0;entryDy=0;exitX=1;exitY=0.5;exitDx=0;exitDy=0;" edge="1" parent="1" source="rxWOuthaQ6ftUKYUlC2r-69" target="rxWOuthaQ6ftUKYUlC2r-3">
          <mxGeometry relative="1" as="geometry" />
        </mxCell>
        <mxCell id="rxWOuthaQ6ftUKYUlC2r-77" style="rounded=0;orthogonalLoop=1;jettySize=auto;html=1;entryX=-0.012;entryY=0.614;entryDx=0;entryDy=0;entryPerimeter=0;" edge="1" parent="1" target="rxWOuthaQ6ftUKYUlC2r-71">
          <mxGeometry relative="1" as="geometry">
            <mxPoint x="160" y="285" as="sourcePoint" />
          </mxGeometry>
        </mxCell>
        <mxCell id="rxWOuthaQ6ftUKYUlC2r-78" style="rounded=0;orthogonalLoop=1;jettySize=auto;html=1;entryX=0.038;entryY=0.671;entryDx=0;entryDy=0;exitX=1;exitY=0.5;exitDx=0;exitDy=0;entryPerimeter=0;" edge="1" parent="1" source="rxWOuthaQ6ftUKYUlC2r-69" target="rxWOuthaQ6ftUKYUlC2r-72">
          <mxGeometry relative="1" as="geometry" />
        </mxCell>
        <mxCell id="rxWOuthaQ6ftUKYUlC2r-80" style="edgeStyle=orthogonalEdgeStyle;rounded=0;orthogonalLoop=1;jettySize=auto;html=1;entryX=1;entryY=0.5;entryDx=0;entryDy=0;startArrow=classic;startFill=1;" edge="1" parent="1" source="rxWOuthaQ6ftUKYUlC2r-79" target="rxWOuthaQ6ftUKYUlC2r-3">
          <mxGeometry relative="1" as="geometry">
            <Array as="points">
              <mxPoint x="413" y="134" />
            </Array>
          </mxGeometry>
        </mxCell>
        <mxCell id="rxWOuthaQ6ftUKYUlC2r-82" style="edgeStyle=orthogonalEdgeStyle;rounded=0;orthogonalLoop=1;jettySize=auto;html=1;entryX=1;entryY=0.5;entryDx=0;entryDy=0;startArrow=classic;startFill=1;" edge="1" parent="1" source="rxWOuthaQ6ftUKYUlC2r-79" target="rxWOuthaQ6ftUKYUlC2r-72">
          <mxGeometry relative="1" as="geometry">
            <Array as="points">
              <mxPoint x="413" y="335" />
            </Array>
          </mxGeometry>
        </mxCell>
        <mxCell id="rxWOuthaQ6ftUKYUlC2r-79" value="&lt;div&gt;&lt;b&gt;Grafana&lt;/b&gt;&lt;/div&gt;" style="rounded=0;whiteSpace=wrap;html=1;fillColor=#ffe6cc;strokeColor=#d79b00;" vertex="1" parent="1">
          <mxGeometry x="370" y="210" width="85" height="50" as="geometry" />
        </mxCell>
      </root>
    </mxGraphModel>
  </diagram>
</mxfile>
